<svg viewBox="0 0 512 512.01" xmlns="http://www.w3.org/2000/svg"
  xmlns:xlink="http://www.w3.org/1999/xlink">
  <radialGradient id="a" cx="256" cy="256.01" gradientUnits="userSpaceOnUse" r="256">
    <stop offset="0" stop-color="#fff" stop-opacity=".15" />
    <stop offset=".43" stop-color="#fff" stop-opacity=".14" />
    <stop offset=".68" stop-color="#fff" stop-opacity=".11" />
    <stop offset=".87" stop-color="#fff" stop-opacity=".05" />
    <stop offset="1" stop-color="#fff" stop-opacity="0" />
  </radialGradient>
  <path d="m0 0h512v512h-512z" />
  <path
    d="m512 73.74v-1.02h-72.7v-72.71h-1.02v72.7h-32.77v-72.7h-1.02v72.7h-131.07v-72.7h-1.02v72.7h-32.77v-72.7h-1.02v72.7h-131.09v-72.7h-1.02v72.7h-32.77v-72.7h-1.02v72.7h-72.71v1.02h72.7v32.77h-72.7v1.02h72.7v131.07h-72.7v1.02h72.7v32.77h-72.7v1.02h72.7v131.07h-72.7v1.02h72.7v32.77h-72.7v1.02h72.7v72.7h1.02v-72.7h32.77v72.7h1.02v-72.7h131.07v72.7h1.02v-72.7h32.77v72.7h1.02v-72.7h131.07v72.7h1.02v-72.7h32.77v72.7h1.02v-72.7h72.7v-1.02h-72.7v-32.77h72.7v-1.02h-72.7v-131.07h72.7v-1.02h-72.7v-32.77h72.7v-1.02h-72.7v-131.06h72.7v-1.02h-72.7v-32.77h72.7zm-107.52 0v32.77h-131.07v-32.77zm-164.86 164.86v-131.07h32.77v131.07zm32.76 1.03v32.77h-32.77v-32.77zm-33.79-1.03h-131.07v-131.07h131.07zm0 1.03v32.77h-131.07v-32.77zm0 33.79v131.07h-131.07v-131.07zm1.03 0h32.77v131.07h-32.77zm33.79 0h131.07v131.07h-131.07zm0-1.02v-32.77h131.07v32.77zm0-33.8v-131.07h131.07v131.07zm-1.03-164.86v32.77h-32.77v-32.77zm-33.79 0v32.77h-131.07v-32.77zm-164.86 0h32.77v32.77h-32.77zm0 33.79h32.77v131.07h-32.77zm0 132.1h32.77v32.77h-32.77zm0 33.79h32.77v131.07h-32.77zm0 164.86v-32.77h32.77v32.77zm33.79 0v-32.77h131.07v32.77zm132.1 0v-32.77h32.77v32.77zm33.79 0v-32.77h131.07v32.77zm164.86 0h-32.77v-32.77h32.77zm0-33.79h-32.77v-131.07h32.77zm0-132.09h-32.77v-32.77h32.77zm0-33.8h-32.77v-131.07h32.77zm0-132.09h-32.77v-32.77h32.77z"
    fill="url(#a)" />
  <path
    d="m173.28 179.66-20.17-34.77h106.28c62.83 0 99.51 47.84 99.51 110.35s-36.68 109.39-99.51 109.39h-86.11v-161.52h38.91s0 126.76 0 126.76h47.2c39.87 0 60.28-33.81 60.28-74.63s-20.41-75.58-60.28-75.58z"
    fill="#fff" />
</svg>